HIERARCHY
ROOT joint_Root
{
	OFFSET 0.0 0.0 0.0
	CHANNELS 6 Xposition Yposition Zposition Zrotation Xrotation Yrotation 
	JOINT Hips
	{
		OFFSET -0.726466 93.3139 -2.00062
		CHANNELS 6 Xposition Yposition Zposition Zrotation Xrotation Yrotation 
		JOINT Spine
		{
			OFFSET 15.7357 0.0 0.0
			CHANNELS 6 Xposition Yposition Zposition Zrotation Xrotation Yrotation 
			JOINT Chest
			{
				OFFSET 8.98455 -0.406207 0.0
				CHANNELS 6 Xposition Yposition Zposition Zrotation Xrotation Yrotation 
				JOINT Neck
				{
					OFFSET 16.3773 0.0 0.0
					CHANNELS 6 Xposition Yposition Zposition Zrotation Xrotation Yrotation 
					JOINT Head
					{
						OFFSET 6.45672 0.0 0.0
						CHANNELS 6 Xposition Yposition Zposition Zrotation Xrotation Yrotation 
						End Site
						{
							OFFSET 0.0 0.0 0.0
						}
					}
				}
				JOINT Shoulder_L
				{
					OFFSET 12.9942 -0.242716 4.98039
					CHANNELS 6 Xposition Yposition Zposition Zrotation Xrotation Yrotation 
					JOINT UpperArm_L
					{
						OFFSET 5.34809 0.0 0.0
						CHANNELS 6 Xposition Yposition Zposition Zrotation Xrotation Yrotation 
						JOINT LowerArm_L
						{
							OFFSET 24.3286 1.87007e-05 0.0
							CHANNELS 6 Xposition Yposition Zposition Zrotation Xrotation Yrotation 
							JOINT Hand_L
							{
								OFFSET 22.2916 0.0 0.0
								CHANNELS 6 Xposition Yposition Zposition Zrotation Xrotation Yrotation 
								End Site
								{
									OFFSET 0.0 0.0 0.0
								}
							}
						}
					}
				}
				JOINT Shoulder_R
				{
					OFFSET 12.9945 -0.242716 -4.98039
					CHANNELS 6 Xposition Yposition Zposition Zrotation Xrotation Yrotation 
					JOINT UpperArm_R
					{
						OFFSET -5.34813 0.0 0.0
						CHANNELS 6 Xposition Yposition Zposition Zrotation Xrotation Yrotation 
						JOINT LowerArm_R
						{
							OFFSET -24.3289 0.000322201 0.0
							CHANNELS 6 Xposition Yposition Zposition Zrotation Xrotation Yrotation 
							JOINT Hand_R
							{
								OFFSET -22.2915 -0.000108084 0.0
								CHANNELS 6 Xposition Yposition Zposition Zrotation Xrotation Yrotation 
								End Site
								{
									OFFSET 0.0 0.0 0.0
								}
							}
						}
					}
				}
			}
		}
		JOINT UpperLeg_L
		{
			OFFSET -2.19248 -6.46944 0.0
			CHANNELS 6 Xposition Yposition Zposition Zrotation Xrotation Yrotation 
			JOINT LowerLeg_L
			{
				OFFSET 39.0811 0.0 -1.23785e-05
				CHANNELS 6 Xposition Yposition Zposition Zrotation Xrotation Yrotation 
				JOINT Foot_L
				{
					OFFSET 40.9854 0.0 -1.26872e-05
					CHANNELS 6 Xposition Yposition Zposition Zrotation Xrotation Yrotation 
					JOINT Toes_L
					{
						OFFSET 11.7543 0.0 0.0
						CHANNELS 6 Xposition Yposition Zposition Zrotation Xrotation Yrotation 
						End Site
						{
							OFFSET 0.0 0.0 0.0
						}
					}
				}
			}
		}
		JOINT UpperLeg_R
		{
			OFFSET -2.19251 6.46944 0.0
			CHANNELS 6 Xposition Yposition Zposition Zrotation Xrotation Yrotation 
			JOINT LowerLeg_R
			{
				OFFSET -39.0811 -0.00228153 -0.0401928
				CHANNELS 6 Xposition Yposition Zposition Zrotation Xrotation Yrotation 
				JOINT Foot_R
				{
					OFFSET -40.9854 0.0 0.0
					CHANNELS 6 Xposition Yposition Zposition Zrotation Xrotation Yrotation 
					JOINT Toes_R
					{
						OFFSET -11.7543 0.0 0.0
						CHANNELS 6 Xposition Yposition Zposition Zrotation Xrotation Yrotation 
						End Site
						{
							OFFSET 0.0 0.0 0.0
						}
					}
				}
			}
		}
	}
}
MOTION
Frames:	8
Frame Time:	0.0333333
0.000000 0.000000 0.000000 0.000000 0.000000 -0.000000 119.529000 86.783400 181.935000 -80.662200 47.397700 177.036000 15.735700 0.000005 -0.000001 92.855400 82.286600 -93.789000 8.984550 -0.406207 -0.000000 7.649100 0.766402 -1.916340 16.377300 -0.000001 -0.000001 6.661030 9.260840 -3.643850 6.456720 -0.000001 -0.000000 -0.282476 14.570300 -4.133840 12.994200 -0.242716 4.980390 -89.245900 -1.622810 -65.072300 5.348090 -0.000007 -0.000001 -67.490700 24.206600 -4.744700 24.328600 0.000019 0.000005 5.977110 9.040630 -33.683700 22.291600 -0.000001 0.000005 5.229390 5.517240 -7.243170 12.994500 -0.242716 -4.980390 88.819400 3.104190 -69.164600 -5.348130 -0.000001 -0.000004 -60.172900 35.833600 -14.578800 -24.328900 0.000322 -0.000009 6.774290 10.787600 -32.405800 -22.291500 -0.000108 -0.000004 2.976530 5.554130 -8.902130 -2.192480 -6.469440 -0.000000 173.846000 -23.701900 -24.551700 39.081100 -0.000007 -0.000012 -0.330016 0.333463 44.703000 40.985400 -0.000006 -0.000013 9.467010 -14.257900 -71.754100 11.754300 -0.000000 0.000003 -0.001414 -0.021129 -17.435900 -2.192510 6.469440 -0.000001 172.656000 9.755800 175.825000 -39.081100 -0.002282 -0.040193 0.185742 -0.083183 65.506200 -40.985400 0.000008 0.000006 -2.679110 -1.216480 -38.232400 -11.754300 -0.000006 -0.000006 -0.022369 -0.180073 -23.935000
0.000000 0.000000 0.000000 0.000000 0.000000 -0.000000 121.422000 87.251700 179.226000 -80.738200 43.168900 177.801000 15.735700 0.000005 -0.000001 89.074900 82.127800 -89.554900 8.984550 -0.406207 -0.000000 7.975500 -0.254005 -0.941338 16.377300 -0.000001 -0.000001 6.585880 8.339860 -3.599640 6.456720 -0.000001 -0.000000 -0.211625 14.247900 -4.086130 12.994200 -0.242716 4.980390 -89.254300 -1.666640 -65.891200 5.348090 -0.000007 -0.000001 -66.137400 27.411300 -8.484240 24.328600 0.000019 0.000005 5.844980 7.293280 -38.886900 22.291600 -0.000001 0.000005 6.141130 5.535670 -8.044040 12.994500 -0.242716 -4.980390 88.856100 2.883930 -68.353500 -5.348130 -0.000001 -0.000004 -63.269900 34.979200 -9.387720 -24.328900 0.000322 -0.000009 6.469270 10.729800 -31.347600 -22.291500 -0.000108 -0.000004 2.820110 5.552010 -8.801140 -2.192480 -6.469440 -0.000000 174.955000 -21.114300 -20.296900 39.081100 -0.000007 -0.000012 -0.336022 0.355610 43.378500 40.985400 -0.000006 -0.000013 9.225220 -12.843900 -73.558700 11.754300 -0.000000 0.000003 -0.000887 -0.013797 -17.137900 -2.192510 6.469440 -0.000001 173.634000 8.598960 172.887000 -39.081100 -0.002282 -0.040193 0.125835 -0.052312 66.907100 -40.985400 0.000008 0.000006 -3.447030 -2.142870 -41.895700 -11.754300 -0.000006 -0.000006 -0.021990 -0.178071 -23.852300
0.000000 0.000000 0.000000 0.000000 0.000000 -0.000000 123.115000 87.851300 176.666000 -80.626700 38.723300 178.417000 15.735700 0.000005 -0.000001 85.086500 81.964900 -85.028300 8.984550 -0.406207 -0.000000 8.247660 -1.370000 0.215136 16.377300 -0.000001 -0.000001 6.643650 7.337850 -3.499090 6.456720 -0.000001 -0.000000 -0.244300 13.984300 -3.873140 12.994200 -0.242716 4.980390 -89.169100 -1.960130 -67.021800 5.348090 -0.000007 -0.000001 -64.744200 29.861800 -12.229500 24.328600 0.000019 0.000005 5.977360 6.261510 -43.830800 22.291600 -0.000001 0.000005 6.642310 5.550760 -8.740650 12.994500 -0.242716 -4.980390 88.927600 2.585620 -67.463100 -5.348130 -0.000001 -0.000004 -65.942200 32.887200 -4.894850 -24.328900 0.000322 -0.000009 5.846610 10.222900 -29.987600 -22.291500 -0.000108 -0.000004 2.021900 5.544310 -8.438630 -2.192480 -6.469440 -0.000000 176.141000 -18.185300 -15.888900 39.081100 -0.000007 -0.000012 -0.326727 0.374614 41.094600 40.985400 -0.000006 -0.000013 9.113020 -11.408900 -74.644800 11.754300 -0.000000 0.000003 -0.000321 -0.005240 -16.790300 -2.192510 6.469440 -0.000001 174.818000 8.044990 170.204000 -39.081100 -0.002282 -0.040193 0.063191 -0.026917 65.850200 -40.985400 0.000008 0.000006 -1.303080 -4.218190 -45.783400 -11.754300 -0.000006 -0.000006 -0.022211 -0.179240 -23.900600
0.000000 0.000000 0.000000 0.000000 0.000000 -0.000000 124.706000 88.566200 174.251000 -80.374100 34.218500 178.814000 15.735700 0.000005 -0.000001 80.771000 81.740200 -80.153200 8.984550 -0.406207 -0.000000 8.560950 -2.632410 1.431730 16.377300 -0.000001 -0.000001 6.467910 6.412540 -3.224580 6.456720 -0.000001 -0.000000 -0.192647 13.746000 -3.688220 12.994200 -0.242716 4.980390 -89.054700 -2.336770 -67.967000 5.348090 -0.000007 -0.000001 -62.807900 31.725700 -16.253200 24.328600 0.000019 0.000005 6.604170 5.857440 -48.605600 22.291600 -0.000001 0.000005 6.737730 5.557770 -9.078250 12.994500 -0.242716 -4.980390 88.961200 2.397450 -66.564600 -5.348130 -0.000001 -0.000004 -67.530200 30.826000 -1.769100 -24.328900 0.000322 -0.000009 5.742730 10.614800 -28.637100 -22.291500 -0.000108 -0.000004 1.486960 5.536590 -8.087840 -2.192480 -6.469440 -0.000000 177.399000 -14.959700 -11.486200 39.081100 -0.000007 -0.000012 -0.320749 0.411268 37.951400 40.985400 -0.000006 -0.000013 9.008730 -9.974650 -75.084400 11.754300 -0.000000 0.000003 -0.000000 -0.000006 -16.577700 -2.192510 6.469440 -0.000001 176.151000 7.198270 167.924000 -39.081100 -0.002282 -0.040193 0.019062 -0.008369 62.204900 -40.985400 0.000008 0.000006 0.987125 -6.564770 -50.142900 -11.754300 -0.000006 -0.000006 -0.021493 -0.175423 -23.743100
0.000000 0.000000 0.000000 0.000000 0.000000 -0.000000 126.235000 89.246100 171.996000 -79.925400 29.806300 178.897000 15.735700 0.000005 -0.000001 76.799600 81.482900 -75.598500 8.984550 -0.406207 -0.000000 8.874790 -3.858480 2.700250 16.377300 -0.000001 -0.000001 6.126400 5.570980 -2.757280 6.456720 -0.000001 -0.000000 -0.235106 13.562700 -3.510580 12.994200 -0.242716 4.980390 -88.977300 -2.646560 -68.861800 5.348090 -0.000007 -0.000001 -60.117500 33.281500 -20.664700 24.328600 0.000019 0.000005 6.311120 4.856970 -52.566800 22.291600 -0.000001 0.000005 7.360390 5.563200 -9.344690 12.994500 -0.242716 -4.980390 88.940200 2.346530 -65.685400 -5.348130 -0.000001 -0.000004 -68.219400 29.245200 0.350949 -24.328900 0.000322 -0.000009 5.770760 11.151200 -27.593900 -22.291500 -0.000108 -0.000004 1.628240 5.529860 -7.789630 -2.192480 -6.469440 -0.000000 178.748000 -11.651700 -7.521500 39.081100 -0.000007 -0.000012 -0.312480 0.453676 34.558700 40.985400 -0.000006 -0.000013 8.848530 -8.616960 -75.194500 11.754300 -0.000000 0.000003 -0.000001 -0.000017 -16.578100 -2.192510 6.469440 -0.000001 177.536000 5.929240 165.885000 -39.081100 -0.002282 -0.040193 0.001252 0.001315 56.262700 -40.985400 0.000008 0.000006 1.840520 -9.282080 -53.475200 -11.754300 -0.000006 -0.000006 -0.021866 -0.177414 -23.825300
0.000000 0.000000 0.000000 0.000000 0.000000 -0.000000 127.765000 89.734600 169.895000 -79.578500 25.522600 178.821000 15.735700 0.000005 -0.000001 73.083300 81.260400 -71.369500 8.984550 -0.406207 -0.000000 9.060900 -5.040040 3.826050 16.377300 -0.000001 -0.000001 5.873340 4.848280 -2.097590 6.456720 -0.000001 -0.000000 -0.357198 13.212600 -3.222910 12.994200 -0.242716 4.980390 -88.874100 -3.028710 -69.596500 5.348090 -0.000007 -0.000001 -56.955800 34.412600 -25.431500 24.328600 0.000019 0.000005 5.707450 3.939050 -55.499900 22.291600 -0.000001 0.000005 7.750760 5.569510 -9.663000 12.994500 -0.242716 -4.980390 88.908100 2.334330 -64.922500 -5.348130 -0.000001 -0.000004 -68.509200 27.892400 1.859900 -24.328900 0.000322 -0.000009 5.553160 11.160000 -26.676100 -22.291500 -0.000108 -0.000004 1.704300 5.526420 -7.638680 -2.192480 -6.469440 -0.000000 179.927000 -7.969340 -4.251900 39.081100 -0.000007 -0.000012 -0.314982 0.512581 31.571400 40.985400 -0.000006 -0.000013 8.465110 -7.736270 -75.335300 11.754300 -0.000000 0.000003 -0.000088 -0.001472 -16.637200 -2.192510 6.469440 -0.000001 178.547000 4.859630 163.834000 -39.081100 -0.002282 -0.040193 0.003306 -0.000048 48.990800 -40.985400 0.000008 0.000006 1.761850 -11.303100 -55.048800 -11.754300 -0.000006 -0.000006 -0.022326 -0.179848 -23.925700
0.000000 0.000000 0.000000 0.000000 0.000000 -0.000000 129.257000 90.009800 167.868000 -79.623000 21.868200 178.611000 15.735700 0.000005 -0.000001 70.357100 81.166800 -68.330500 8.984550 -0.406207 -0.000000 9.015560 -5.885810 4.517010 16.377300 -0.000001 -0.000001 5.700570 4.126860 -1.393280 6.456720 -0.000001 -0.000000 -0.454726 12.720600 -2.715310 12.994200 -0.242716 4.980390 -88.736000 -3.531770 -70.292400 5.348090 -0.000007 -0.000001 -53.585300 35.101100 -30.112500 24.328600 0.000019 0.000005 5.652830 3.569350 -57.831200 22.291600 -0.000001 0.000005 7.952270 5.570030 -9.689730 12.994500 -0.242716 -4.980390 88.936000 2.208260 -64.266300 -5.348130 -0.000001 -0.000004 -68.811900 26.391100 2.950410 -24.328900 0.000322 -0.000009 5.465010 11.341400 -25.947400 -22.291500 -0.000108 -0.000004 1.760900 5.521180 -7.412350 -2.192480 -6.469440 -0.000000 -179.365000 -4.744800 -1.671160 39.081100 -0.000007 -0.000012 -0.288801 0.522374 28.937100 40.985400 -0.000006 -0.000013 8.030910 -7.039090 -75.557200 11.754300 -0.000000 0.000003 -0.000000 -0.000003 -16.577600 -2.192510 6.469440 -0.000001 178.935000 3.951640 161.870000 -39.081100 -0.002282 -0.040193 0.010498 -0.008371 40.782800 -40.985400 0.000008 0.000006 1.604760 -11.115600 -56.270000 -11.754300 -0.000006 -0.000006 -0.020564 -0.170392 -23.535700
0.000000 0.000000 0.000000 0.000000 0.000000 -0.000000 130.742000 90.037600 165.786000 -79.981700 19.025900 178.462000 15.735700 0.000005 -0.000001 68.780400 81.153000 -66.642900 8.984550 -0.406207 -0.000000 8.891660 -6.350870 4.769110 16.377300 -0.000001 -0.000001 5.671090 3.504640 -0.758354 6.456720 -0.000001 -0.000000 -0.531039 12.156700 -2.019960 12.994200 -0.242716 4.980390 -88.608400 -4.022290 -70.897600 5.348090 -0.000007 -0.000001 -50.118800 35.319100 -34.268200 24.328600 0.000019 0.000005 5.802060 3.375170 -59.913600 22.291600 -0.000001 0.000005 7.751430 5.569250 -9.649990 12.994500 -0.242716 -4.980390 89.017500 1.999030 -63.820600 -5.348130 -0.000001 -0.000004 -69.144700 25.008700 3.672960 -24.328900 0.000322 -0.000009 5.302010 11.352500 -25.245800 -22.291500 -0.000108 -0.000004 2.163680 5.518620 -7.303350 -2.192480 -6.469440 -0.000000 -178.852000 -2.718870 0.733287 39.081100 -0.000007 -0.000012 -0.281773 0.559764 26.720200 40.985400 -0.000006 -0.000013 7.633650 -6.055520 -76.159600 11.754300 -0.000000 0.000003 -0.000001 -0.000011 -16.577900 -2.192510 6.469440 -0.000001 178.994000 3.677320 160.087000 -39.081100 -0.002282 -0.040193 0.010651 -0.011707 32.133000 -40.985400 0.000008 0.000006 0.568671 -8.870470 -56.414500 -11.754300 -0.000006 -0.000006 -0.020125 -0.167980 -23.436400
